<svg xmlns="http://www.w3.org/2000/svg" viewBox="0 0 800 200" fill="none">
  <!-- P Icon -->
  <g transform="translate(20, 20)">
    <!-- Top piece -->
    <path d="M0 0 H80 Q120 0 120 40 Q120 60 100 65 L30 65 Q20 65 20 55 L20 10 Q20 0 0 0 Z" fill="currentColor"/>

    <!-- Middle piece -->
    <path d="M0 75 L100 75 Q120 78 120 100 Q120 122 100 125 L30 125 Q20 125 20 115 L20 85 Q20 75 0 75 Z" fill="currentColor"/>

    <!-- Bottom piece -->
    <path d="M0 135 H60 Q75 135 75 155 Q75 175 60 175 H0 Z" fill="currentColor"/>

    <!-- Sync circle -->
    <circle cx="95" cy="95" r="18" fill="#F5F5F5"/>
  </g>

  <!-- PETASYNC Text -->
  <text x="200" y="130" font-family="Arial, sans-serif" font-size="80" font-weight="900" fill="currentColor">PETASYNC</text>
</svg>
