<svg xmlns="http://www.w3.org/2000/svg" viewBox="0 0 200 280" fill="none">
  <!-- P Symbol with sync concept -->
  <g>
    <!-- Top piece -->
    <path d="M20 20 H140 Q180 20 180 70 Q180 95 160 105 L60 105 Q40 105 40 85 L40 40 Q40 20 20 20 Z" fill="currentColor"/>

    <!-- Middle piece -->
    <path d="M20 120 L160 120 Q180 125 180 155 Q180 185 160 190 L60 190 Q40 190 40 170 L40 140 Q40 120 20 120 Z" fill="currentColor"/>

    <!-- Bottom piece -->
    <path d="M20 205 H100 Q120 205 120 235 Q120 265 100 265 H20 Z" fill="currentColor"/>

    <!-- Center circle for sync effect -->
    <circle cx="140" cy="145" r="25" fill="#F5F5F5"/>
  </g>
</svg>
