<svg xmlns="http://www.w3.org/2000/svg" viewBox="0 0 200 280" fill="none">
  <g fill="currentColor">
    <!-- Top curved section of P -->
    <path d="M 20 20 L 140 20 Q 180 20 180 70 Q 180 90 165 100 L 155 100 Q 140 90 140 75 Q 140 60 125 60 L 60 60 L 60 40 Q 60 20 20 20 Z" fill="currentColor"/>

    <!-- Middle curved section -->
    <path d="M 20 110 L 165 110 Q 180 115 180 145 Q 180 175 165 180 L 155 180 Q 140 175 140 160 Q 140 145 125 145 L 60 145 L 60 125 Q 60 110 20 110 Z" fill="currentColor"/>

    <!-- Bottom curved section -->
    <path d="M 20 190 L 100 190 Q 120 190 120 220 Q 120 250 100 250 L 90 250 Q 75 245 75 230 Q 75 215 65 215 L 60 215 L 60 205 Q 60 190 20 190 Z" fill="currentColor"/>

    <!-- Center circle (sync symbol) -->
    <circle cx="140" cy="145" r="28" fill="#E5E5E5"/>
  </g>
</svg>
